<?xml version="1.0" encoding="UTF-8" standalone="no"?> <!-- Created with Vectornator for iOS (http://vectornator.io/) --><!DOCTYPE svg PUBLIC "-//W3C//DTD SVG 1.1//EN" "http://www.w3.org/Graphics/SVG/1.1/DTD/svg11.dtd">
<svg style="fill-rule:evenodd;clip-rule:evenodd;stroke-linecap:round;stroke-linejoin:round;" xmlns:vectornator="http://vectornator.io" xmlns:xlink="http://www.w3.org/1999/xlink" xmlns="http://www.w3.org/2000/svg" xml:space="preserve" version="1.1" viewBox="0 0 50 50">
<metadata>
<vectornator:setting key="DisplayWhiteBackground" value="0"/>
<vectornator:setting key="RulersVisible" value="1"/>
<vectornator:setting key="SnapToEdges" value="0"/>
<vectornator:setting key="Units" value="Pixels"/>
<vectornator:setting key="DynamicGuides" value="0"/>
<vectornator:setting key="SnapToPoints" value="0"/>
<vectornator:setting key="SnapToGrid" value="0"/>
<vectornator:setting key="SnapToGuides" value="1"/>
<vectornator:setting key="ShowGrid" value="1"/>
<vectornator:setting key="GridSpacing" value="36"/>
</metadata>
<defs/>
<g id="Layer 1" vectornator:layerName="Layer 1">
<path stroke="#000000" stroke-width="1" d="M14.6418+24.9735C11.3449+27.0237+16.0871+29.6853+18.2524+29.2548L18.3184+29.5582C13.2918+31.8241+10.4073+25.4054+14.4349+24.1872" fill="#000000" stroke-linecap="butt" opacity="0" stroke-linejoin="round"/>
<path stroke="#000000" stroke-width="1" d="M13.1295+26.6487C13.1295+26.032+15.399+25.0437+15.9173+24.94C15.9767+24.9282+16.1248+24.9033+16.1571+25C16.3211+25.4922+14.939+26.1708+15.2878+26.7986C15.5297+27.234+16.8585+26.3953+17.2062+26.3489C17.2861+26.3383+17.4549+26.2988+17.446+26.3789C17.3721+27.0443+16.0731+27.6014+15.6175+27.9976C15.4841+28.1136+15.1043+28.2996+15.2578+28.3873C15.8511+28.7263+18.615+26.4987+19.2746+27.458C19.7772+28.1892+16.5453+30.7957+18.1655+28.6571C18.2893+28.4937+18.4351+28.3471+18.5851+28.2074C18.7256+28.0766+18.8782+27.9588+19.0348+27.8477C19.3659+27.6127+19.4521+27.5791+19.7542+27.4281" fill="#000000" stroke-linecap="butt" opacity="0" stroke-linejoin="round"/>
<path stroke="#000000" stroke-width="1" d="M15.018+21.9424C19.2895+20.1118+18.7906+24.7247+18.3153+24.1307" fill="#000000" stroke-linecap="butt" opacity="0" stroke-linejoin="round"/>
<path stroke="#000000" stroke-width="1" d="M8.63309+29.8861C9.0179+30.1426+9.4469+30.4556+9.92206+30.4556C10.6558+30.4556+11.4305+29.8474+11.8405+30.7554C12.0541+31.2284+12.092+31.9506+11.8106+32.4041C11.5486+32.8262+10.5021+33.1851+10.5516+32.3441C10.7063+29.7127+16.5702+30.5778+12.9197+32.3441C12.6734+32.4633+12.4235+32.4995+12.1703+32.5839" fill="#000000" stroke-linecap="butt" opacity="0" stroke-linejoin="round"/>
<path stroke="#000000" stroke-width="1" d="M33.5132+14.0588C32.9496+15.0451+32.7594+16.4203+32.494+17.506C32.4428+17.7155+32.3997+17.9271+32.3441+18.1355C32.3123+18.2549+32.1437+18.5505+32.2542+18.4952C32.416+18.4143+32.4223+18.3506+32.464+18.2254" fill="#000000" stroke-linecap="butt" opacity="0" stroke-linejoin="round"/>
<path stroke="#f91212" stroke-width="1" d="M20.8813+26.8708C20.6892+24.0692+21.9477+17.2984+26.4084+18.7254C27.9425+19.2162+30.4334+22.0611+28.2562+23.2207L27.9788+23.0622C26.0532+16.8512+21.7846+22.1303+21.7446+26.6065" fill="#f91212" stroke-linecap="butt" opacity="0" stroke-linejoin="round"/>
<path stroke="#f91212" stroke-width="1" d="M25.0932+26.9085C24.9316+26.0607+24.7468+25.2169+24.6083+24.3649C23.9773+20.4823+35.0454+23.1361+28.8128+27.7894C28.2148+28.2359+27.4134+28.5037+26.6643+28.4731C23.3181+28.3362+20.2738+25.3715+19.8718+22.1154C19.3194+17.641+23.4299+17.273+22.9534+18.0001L22.3703+17.6114C22.2334+17.87+23.211+17.9294+23.0464+18.1712C20.8891+21.3392+20.1836+23.6883+24.6838+26.2907C25.4135+26.7127+26.1615+27.1515+27.0509+26.989C27.44+26.9179+28.1081+26.5516+28.428+26.3251C28.749+26.0979+29.7017+25.261+29.4577+24.7442C29.2327+24.2676+25.2365+23.6116+25.1471+23.8875C24.9077+24.6258+25.2573+25.4359+25.3264+26.209" fill="#f91212" stroke-linecap="butt" opacity="0" stroke-linejoin="round"/>
<path stroke="#f91212" stroke-width="1" d="M18.735+22.4221C17.7233+20.8033+22.5335+17.087+23.5012+20.4137C23.6613+20.9641+23.7242+21.4366+23.711+22.0024C23.6722+23.6713+20.8386+25.5046+19.3645+25.2098C19.1081+25.1585+18.9899+24.8433+18.8249+24.6403C17.8296+23.4152+18.4652+23.834+18.4652+22.8717C18.4652+22.6635+17.9511+21.8016+17.7458+22.2122" fill="#f91212" stroke-linecap="butt" opacity="0" stroke-linejoin="round"/>
<path stroke="#f91212" stroke-width="1" d="M13.2233+21.7762C13.6469+16.8032+20.8347+14.1829+22.2183+19.5407C22.5142+20.6866+22.0142+21.8777+21.428+22.8311C16.8107+30.3402+14.5637+20.2953+16.8165+19.5444L16.8165+19.5444C15.558+19.9639+16.9441+26.4493+19.5193+22.0131C19.6795+21.7371+19.7856+21.4327+19.937+21.1518C20.3862+20.3184+20.7363+19.9776+20.3191+18.9833C19.8198+17.7933+14.9359+18.1739+14.1007+20.5658" fill="#f91212" stroke-linecap="butt" opacity="0" stroke-linejoin="round"/>
<path stroke="#f91212" stroke-width="1" d="M5.78537+20.7734C7.51701+19.0417+17.4012+13.0767+18.6451+18.1655C18.9236+19.3048+18.4071+21.9569+17.0564+22.3621C17.0024+22.3783+16.6378+22.3477+16.7866+22.4221" fill="#f91212" stroke-linecap="butt" opacity="0" stroke-linejoin="round"/>
<path stroke="#000000" stroke-width="1" d="M25.8516+11.5919C21.3207+14.7178+18.412+17.0559+19.286+23.2564C20.2915+30.3901+29.4863+30.2884+33.6468+26.1773C37.81+22.0635+35.3063+13.154+29.5531+12.1525C24.7305+11.3129+21.5837+14.6757+18.6173+18.0632L18.4725+17.9816C18.9919+15.9794+19.5191+14.3027+20.7265+12.6109C23.9504+8.09332+31.8983+8.34271+35.4415+12.4551C40.0672+17.824+38.5432+26.7134+32.4066+30.1439C30.6414+31.1307+28.448+31.7047+26.4248+31.7831C24.134+31.8718+21.3933+31.0942+20.0405+29.2838C16.28+24.2513+15.3161+20.9301+18.5447+15.1864C19.9286+12.7244+22.4251+10.9462+25.1921+10.5014C25.5691+10.4408+25.9746+10.2989+26.0321+10.7798" fill="#000000" stroke-linecap="butt" opacity="1" stroke-linejoin="round"/>
</g>
</svg>
